<?xml version="1.0" encoding="UTF-8"?> <svg xmlns="http://www.w3.org/2000/svg" width="110" height="112" viewBox="0 0 110 112"><g id="Group_44197" data-name="Group 44197" transform="translate(-107 -5344.239)"><g id="Group_36023" data-name="Group 36023" transform="translate(17 1122.239)"><rect id="Rectangle_6739" data-name="Rectangle 6739" width="110" height="112" rx="23" transform="translate(90 4222)" fill="#f7f7f7" opacity="0.682"></rect></g><g id="noun-communities-4752242" transform="translate(8.739 5300.658)"><path id="Path_69669" data-name="Path 69669" d="M149.071,80.427a4.139,4.139,0,0,1,4.248-4.4c2.425,0,4.053,1.768,4.053,4.4,0,2.8-1.863,5.07-4.151,5.07S149.071,83.221,149.071,80.427Zm-14.572,27.3a4.138,4.138,0,0,0-4.248,4.4c0,2.8,1.863,5.07,4.151,5.07s4.151-2.274,4.151-5.07C138.552,109.5,136.924,107.729,134.5,107.729Zm52.407,8.741a14.819,14.819,0,0,1-6.694,12.386,1.049,1.049,0,0,1-.179.115,14.773,14.773,0,0,1-15.9,0,1.011,1.011,0,0,1-.18-.116,14.819,14.819,0,0,1-6.692-12.386c0-.339.016-.676.038-1.01h-8.068c.022.334.038.67.038,1.01a14.819,14.819,0,0,1-6.692,12.385,1,1,0,0,1-.183.117,14.772,14.772,0,0,1-15.9,0,1.011,1.011,0,0,1-.18-.116,14.817,14.817,0,0,1,15.356-25.325l3.624-6.276a.953.953,0,0,1-.157-.1,14.823,14.823,0,1,1,16.265,0,1.011,1.011,0,0,1-.159.1l3.623,6.275a14.816,14.816,0,0,1,22.05,12.939ZM150.294,86.08h5.939a5.569,5.569,0,0,1,5.563,5.563v2.551a12.722,12.722,0,1,0-17.064,0V91.643a5.568,5.568,0,0,1,5.563-5.563Zm-3.13,30.39A12.722,12.722,0,1,0,125.91,125.9v-2.551a5.569,5.569,0,0,1,5.563-5.563h5.939a5.569,5.569,0,0,1,5.563,5.563V125.9a12.7,12.7,0,0,0,4.19-9.428Zm10.425-3.112a14.846,14.846,0,0,1,5.51-8.67l-3.711-6.428a14.768,14.768,0,0,1-12.251,0l-3.711,6.428a14.847,14.847,0,0,1,5.51,8.67ZM184.8,116.47A12.722,12.722,0,1,0,163.55,125.9v-2.551a5.569,5.569,0,0,1,5.563-5.563h5.938a5.569,5.569,0,0,1,5.563,5.563V125.9a12.69,12.69,0,0,0,4.191-9.428Zm-12.662-8.74a4.139,4.139,0,0,0-4.248,4.4c0,2.795,1.861,5.07,4.15,5.07s4.151-2.274,4.151-5.07C176.194,109.5,174.565,107.73,172.142,107.73Z"></path></g></g></svg> 