<?xml version="1.0" encoding="UTF-8"?> <svg xmlns="http://www.w3.org/2000/svg" width="110" height="112" viewBox="0 0 110 112"><g id="Group_44198" data-name="Group 44198" transform="translate(-107 -5344.239)"><g id="Group_36023" data-name="Group 36023" transform="translate(17 1122.239)"><rect id="Rectangle_6739" data-name="Rectangle 6739" width="110" height="112" rx="23" transform="translate(90 4222)" fill="#f7f7f7" opacity="0.682"></rect></g><g id="noun-geography-5173043" transform="translate(42.152 5313.018)"><path id="Path_69655" data-name="Path 69655" d="M89.772,262.68H81.288a2.531,2.531,0,0,0-2.535,2.532V293.43a2.532,2.532,0,0,0,2.532,2.532H89.77A2.532,2.532,0,0,0,92.3,293.43V265.212a2.532,2.532,0,0,0-2.53-2.532Zm-3.579,7.773a.663.663,0,1,1-1.326,0V268.81a.663.663,0,1,1,1.326,0Z" transform="translate(0 -180.491)"></path><path id="Path_69656" data-name="Path 69656" d="M457.9,85.188c.784,1.449,3.049,1.144,4.529,1.05,3.354-.1,9.256,1.029,9.93,4.712.265,1.723-1.123,3.144-1.226,4.721.1,2.622,3.314,3.4,5.639,2.347a24.793,24.793,0,0,0,2.431-1.272,30.319,30.319,0,0,0-14.938-21.1c-.552.745-4.309,5.038-4.964,5.814-1.4,1.616-1.854,2.838-1.4,3.732Z" transform="translate(-321.556 -21.791)"></path><path id="Path_69657" data-name="Path 69657" d="M215.77,84.331c2.658-.691,5.966-.2,6.882,1.823,1.284,2.7-.783,5.737-.458,8.491a3.736,3.736,0,0,0,2.107,3.3c2.094.686,4.428-1.283,6.608-1.524,1.294-.211,2.705.094,3.924-.248h0a6.922,6.922,0,0,0,2.867-2.117c3.815-3.911,4.734-6.934,1.79-11.759-2.121-3.564-2.834-7.567-.066-9.943.694-.7,1.549-1.723,1.171-2.69l-8.286,2.2c-3.424,1.061-4.324-2.546-3.49-5.1a4.116,4.116,0,0,0-.114-2.585,30.378,30.378,0,0,0-17.867,19.8c1.624.985,3.011.7,4.933.354Z" transform="translate(-112.072 -12.063)"></path><path id="Path_69658" data-name="Path 69658" d="M204.759,85.039c12.64.557,19.473,6.085,21.455,7.974h12.747a6.063,6.063,0,0,1,5.987,5.178,10.707,10.707,0,0,0,1.507-7.571c-.227-1.316-.641-2.89.371-4.1,1.175-1.382,3.182-.95,4.587-.5l3.018.951c2.609.822,5.432,1.711,7.81,2.47h0a30.03,30.03,0,0,0,1.209-13.074c-1.81.985-2.834,1.591-4.909,1.651-2.328.133-4.839-1.872-4.7-4.176-.014-1.586,1.362-3.015,1.238-4.507-.633-2.806-6.114-3.662-8.56-3.559-5.977.857-7.857-3-4.188-6.974.415-.521,4.519-5.179,4.778-5.584h0a30.381,30.381,0,0,0-23.643-1.574,5.449,5.449,0,0,1,.169,3.34c-.482,1.578-.469,4.353,1.856,3.539l8.714-2.312a.658.658,0,0,1,.614.149,2.845,2.845,0,0,1,.106,3.636c-.556.849-1.4,1.486-1.928,2.3-1.38,2.3.038,5.2,1.187,7.315,3.214,5.277,2.2,9.038-2,13.295a6.783,6.783,0,0,1-5.937,2.7c-2.661-.318-4.9,1.706-7.49,1.766-2.418.005-4.14-2.02-4.361-4.682a17.484,17.484,0,0,1,.675-5.03c.943-3.4-1.135-4.74-4.42-4.278-2.3.331-4.382,1.1-6.632-.154h0a30.274,30.274,0,0,0-.433,11.779c.423,0,.807.013,1.172.033Z" transform="translate(-105.595)"></path><path id="Path_69659" data-name="Path 69659" d="M486.06,305.953l13.986-5.417a4.643,4.643,0,0,1,.663-.212c.414-.851.775-1.723,1.1-2.606-2.37-.757-5.177-1.641-7.774-2.458-1.458-.377-5.332-2.115-6.2-.852-.589.663-.253,1.989-.076,3.009a12.064,12.064,0,0,1-1.706,8.536Z" transform="translate(-345.597 -207.027)"></path><path id="Path_69660" data-name="Path 69660" d="M243.844,300.35a4.455,4.455,0,0,0-5.614-2.26l-14.4,5.581a6.068,6.068,0,0,1-5.925,4.8H198.036a.663.663,0,1,1,0-1.326h18.638a4.729,4.729,0,0,0,0-9.459h-13.29c-2.585-3.13-13.184-9.189-26.447-7.888v24.6l24.008,7.735h0a18.212,18.212,0,0,0,5.833.908,17.65,17.65,0,0,0,7.921-1.83l27.277-15.133h0a4.446,4.446,0,0,0,1.868-5.734Z" transform="translate(-83.308 -203.346)"></path></g></g></svg> 