<?xml version="1.0" encoding="UTF-8"?> <svg xmlns="http://www.w3.org/2000/svg" width="110" height="112" viewBox="0 0 110 112"><g id="Group_44196" data-name="Group 44196" transform="translate(-107 -5344.239)"><g id="Group_36023" data-name="Group 36023" transform="translate(17 1122.239)"><rect id="Rectangle_6739" data-name="Rectangle 6739" width="110" height="112" rx="23" transform="translate(90 4222)" fill="#f7f7f7" opacity="0.682"></rect></g><g id="noun-innovation-3967973" transform="translate(36.768 5319.429)"><path id="Path_69661" data-name="Path 69661" d="M264.136,207.689a16.111,16.111,0,0,0-11.686,4.328,15.769,15.769,0,0,0-1.558,21.207,23.263,23.263,0,0,1,3.982,7.011h16.966a22.267,22.267,0,0,1,3.982-7.011A15.7,15.7,0,0,0,279.2,222.75a15.989,15.989,0,0,0-15.061-15.061Z" transform="translate(-138.125 -138.055)"></path><path id="Path_69662" data-name="Path 69662" d="M295.68,452.588a1.183,1.183,0,0,0,1.212,1.212h1.645a5.62,5.62,0,0,0,11.08,0h1.645a1.183,1.183,0,0,0,1.212-1.212V448H295.68Z" transform="translate(-178.844 -341.232)"></path><path id="Path_69663" data-name="Path 69663" d="M310.615,54.313h2.856v7.963a2.078,2.078,0,0,0,4.155,0V54.313h2.856a1.35,1.35,0,0,0,1.125-2.078l-4.934-7.271a1.375,1.375,0,0,0-2.25,0l-4.934,7.271a1.324,1.324,0,0,0,1.125,2.078Z" transform="translate(-190.317 0)"></path><path id="Path_69664" data-name="Path 69664" d="M174.011,131.782l-5.626-5.626,1.991-1.991a1.324,1.324,0,0,0-.693-2.25l-8.656-1.645a1.315,1.315,0,0,0-1.558,1.558l1.645,8.656a1.324,1.324,0,0,0,2.25.693l1.991-1.991,5.626,5.626a2.089,2.089,0,0,0,2.943,0,2.171,2.171,0,0,0,.087-3.03Z" transform="translate(-63.668 -64.139)"></path><path id="Path_69665" data-name="Path 69665" d="M102.034,273.785H94.07v-2.856a1.35,1.35,0,0,0-2.078-1.125l-7.271,4.934a1.375,1.375,0,0,0,0,2.25l7.271,4.934A1.324,1.324,0,0,0,94.07,280.8V277.94h7.963a2.106,2.106,0,0,0,2.078-2.078,2.05,2.05,0,0,0-2.077-2.077Z" transform="translate(0 -190.388)"></path><path id="Path_69666" data-name="Path 69666" d="M506.032,275.222l-7.271-4.934a1.324,1.324,0,0,0-2.078,1.125v2.77h-7.963a2.078,2.078,0,1,0,0,4.155h7.963v2.856a1.35,1.35,0,0,0,2.078,1.125l7.271-4.934a1.294,1.294,0,0,0,0-2.164Z" transform="translate(-340.29 -190.786)"></path><path id="Path_69667" data-name="Path 69667" d="M453.774,131.175a1.324,1.324,0,0,0,2.25-.693l1.645-8.656a1.315,1.315,0,0,0-1.558-1.558l-8.656,1.645a1.324,1.324,0,0,0-.693,2.25l1.991,1.991-5.626,5.626a2.145,2.145,0,0,0,0,2.943,2.089,2.089,0,0,0,2.943,0L451.7,129.1Z" transform="translate(-303.007 -64.138)"></path></g></g></svg> 