<svg xmlns="http://www.w3.org/2000/svg" width="147.753" height="139.261" viewBox="0 0 147.753 139.261"><g id="noun-planning-2941618" transform="translate(-76.181 -28.989)"><path id="Path_435" data-name="Path 435" d="M83.766,99.662c-.972-6.5,8.9-7.969,9.872-1.482l5.106,33.8a6.4,6.4,0,0,0,6.411,5.664h15.151c6.567,0,6.567,9.987,0,9.987H105.155A16.458,16.458,0,0,1,88.874,133.46Zm89.018-70.673H153.538a7.969,7.969,0,0,0-7.951,7.949v12.67a7.97,7.97,0,0,0,7.951,7.951h15.028l18.115,6.967-5.943-14.857V36.938a7.97,7.97,0,0,0-7.953-7.949Zm-11.493,5.649,1.827,1.827,1.826-1.826c4.323-4.327,10.863,2.213,6.54,6.54l-1.826,1.826,1.824,1.824c4.327,4.327-2.213,10.866-6.54,6.54l-1.824-1.824-1.826,1.826c-4.328,4.323-10.866-2.213-6.54-6.54l1.826-1.826-1.827-1.827C150.426,36.853,156.966,30.313,161.291,34.638ZM141.413,61.83h16.374a6.782,6.782,0,0,1,6.765,6.763v10.78a6.782,6.782,0,0,1-6.765,6.763H145l-15.413,5.929,5.058-12.641V68.593a6.781,6.781,0,0,1,6.765-6.763Zm-2.18,12.261c-3.266-3.778,2.485-8.747,5.747-4.973l2.927,3.389,7.612-6.567c3.778-3.264,8.747,2.486,4.973,5.747L150,80.741a3.8,3.8,0,0,1-5.36-.387l-5.4-6.265Zm23.153,46.054v44.232c0,5.165-9.616,5.165-9.616,0V120.145H129.39c-4.95,0-4.95-7.486,0-7.486h56.374c4.95,0,4.95,7.486,0,7.486Zm-19.73-20.162H129.416c-5.9,0-14.365-10.572-19.4-10.572-.44,0-4.926.535-6.677.791-3.492.511-6.906,4.576-6.32,9.56l4.417,28.319c.995,6.387,3.586,6.358,9.793,6.358h16.3l5.143,29.076c1.154,6.54,11.906,6.646,10.191-2.5l-5.8-30.86c-.8-4.244-2.09-6.074-6.4-6.074H119.963l-.551-17.122c4.525,1.427,5.32,1.978,10.213,1.978h13.247c5.167-.273,4.435-8.9-.218-8.956Zm29.842,0h13.239c5.9,0,14.365-10.572,19.4-10.572.44,0,4.926.535,6.677.791,3.492.511,6.906,4.576,6.32,9.56l-4.417,28.319c-.995,6.387-3.586,6.358-9.793,6.358h-16.3l-5.143,29.076c-1.154,6.54-11.906,6.646-10.191-2.5l5.8-30.86c.8-4.244,2.09-6.074,6.4-6.074h10.709l.551-17.122c-4.525,1.427-5.32,1.978-10.213,1.978H172.279c-5.167-.273-4.435-8.9.218-8.956Zm34.017-41.252A12.991,12.991,0,1,0,219.5,71.722,12.991,12.991,0,0,0,206.514,58.731Zm24.87,40.93c.972-6.5-8.9-7.969-9.872-1.482l-5.106,33.8a6.4,6.4,0,0,1-6.411,5.664H194.844c-6.567,0-6.567,9.987,0,9.987h15.151a16.458,16.458,0,0,0,16.281-14.169ZM108.637,58.731A12.991,12.991,0,1,1,95.646,71.722,12.991,12.991,0,0,1,108.637,58.731Z" transform="translate(-7.518)" fill="#156984" fill-rule="evenodd"></path></g></svg>