<svg xmlns="http://www.w3.org/2000/svg" width="134.635" height="116.713" viewBox="0 0 134.635 116.713"><g id="noun-leadership-5167171" transform="translate(-70.078 -0.004)"><path id="Path_429" data-name="Path 429" d="M223.564,161.054l.067-.069a3.051,3.051,0,0,0,.88-2.471,3.237,3.237,0,0,0-1.405-2.282l-25.26-17.912a.872.872,0,0,1-.238-1.246c5.022-6.984,3.408-14.181-1.054-17.106a11.19,11.19,0,0,0-9.5-1.034c-4.183,1.57-6.246,5.931-6.781,9.489-.619,4.112.579,7.863,3.051,9.555,2.374,1.624,5.859,1.42,8.364.963a1.159,1.159,0,0,1,1.226.528.878.878,0,0,1-.308,1.156l-10.656,7.388a7.787,7.787,0,0,1-6.782.911l-4.232-1.411.4,7.079,2.978.911a13.318,13.318,0,0,0,10.39-1.126l6.6-3.812a1.251,1.251,0,0,1,1.16-.035.935.935,0,0,1,.554.884l-1,15.662c-.219,3.418-2.94,6.271-6.772,7.1l-2.213.48c-4.394.952-7.669,4.17-8.151,8.007-.1.778-.272,1.655-.457,2.583a36.56,36.56,0,0,0-.879,7.1l7.192,1.934,1.52-8.563a6.582,6.582,0,0,1,5.435-5.074l9.13-1.826a6.1,6.1,0,0,1,6.856,3.227l7.752,18.475a4.329,4.329,0,0,0,7.269.6,3.081,3.081,0,0,0,.305-3.059L209.522,176.7a16.951,16.951,0,0,1-1.482-6.917V156.088l-3.618-2.874a.87.87,0,0,1-.068-1.351,1.225,1.225,0,0,1,1.559-.059l12.055,9.577a4.213,4.213,0,0,0,2.878.874,4.064,4.064,0,0,0,2.718-1.2Z" transform="translate(-76.605 -93.655)" fill="#156984"></path><path id="Path_430" data-name="Path 430" d="M169.518,30.905a12.7,12.7,0,0,1,7.12-7.382,13.6,13.6,0,0,1,11.706,1.264,10.666,10.666,0,0,1,3.161,3.242,21.784,21.784,0,0,0,10.071-9.349A34.972,34.972,0,0,1,212.644,6.237a39.428,39.428,0,0,1,8.093-4.288A36.424,36.424,0,0,0,205.091.243a38.02,38.02,0,0,0-8.277,2.124,29.718,29.718,0,0,1-10.2,2.123,28.986,28.986,0,0,1-9.537-1.513A40.081,40.081,0,0,0,162.718.919l-4.339.186,1.728,30.206Z" transform="translate(-67.066 0)" fill="#156984"></path><path id="Path_431" data-name="Path 431" d="M70.078,471.7h86.594L70.078,448.45Z" transform="translate(0 -354.982)" fill="#156984"></path><path id="Path_432" data-name="Path 432" d="M438.941,243.119a3.233,3.233,0,0,0-1.4-2.281l-25.263-17.914a.872.872,0,0,1-.238-1.246c5.022-6.984,3.408-14.181-1.054-17.106a11.186,11.186,0,0,0-9.5-1.033c-4.183,1.57-6.246,5.931-6.781,9.489-.619,4.112.579,7.863,3.051,9.555,2.374,1.624,5.859,1.42,8.364.963a1.158,1.158,0,0,1,1.226.528.876.876,0,0,1-.309,1.155l-10.828,7.508a6.728,6.728,0,0,1-6.38.585l-5.882-2.549a4.224,4.224,0,0,0-2.961-.144,3.531,3.531,0,0,0-2.15,1.769l-.039.081a3.109,3.109,0,0,0,1.972,4.264l8.223,3.055a12.058,12.058,0,0,0,10.129-.806l6.615-3.822a1.251,1.251,0,0,1,1.16-.035.934.934,0,0,1,.554.884l-1,15.662c-.219,3.418-2.94,6.271-6.772,7.1l-2.268.492c-4.35.943-7.605,4.171-8.1,8.033l-.947,7.387,7.207,1.938,1.121-6.312a6.583,6.583,0,0,1,5.436-5.074l9.13-1.826a6.1,6.1,0,0,1,6.856,3.227l4.487,10.7h8.476L423.953,261.3a16.954,16.954,0,0,1-1.482-6.917V240.692l-3.618-2.874a.87.87,0,0,1-.068-1.351,1.226,1.226,0,0,1,1.559-.059l12.053,9.575a4.211,4.211,0,0,0,2.879.875,4.063,4.063,0,0,0,2.718-1.2l.066-.068a3.043,3.043,0,0,0,.881-2.47Z" transform="translate(-234.247 -160.626)" fill="#156984"></path><path id="Path_433" data-name="Path 433" d="M144.993,102.614l-2.609-45.606L139.452,5.74l-3.089.133,5.486,95.9Z" transform="translate(-50.344 -4.54)" fill="#156984"></path><path id="Path_434" data-name="Path 434" d="M129.086,255.459l.855.261-.382-6.691a3.807,3.807,0,0,0-2.738,1.951,2.916,2.916,0,0,0,.013,2.665,3.665,3.665,0,0,0,2.253,1.813Z" transform="translate(-42.857 -197.124)" fill="#156984"></path></g></svg>