<svg xmlns="http://www.w3.org/2000/svg" width="157.126" height="139.676" viewBox="0 0 157.126 139.676"><g id="noun-analysing-1567429" transform="translate(-84.675 -55.894)"><path id="Path_436" data-name="Path 436" d="M274.034,86.855A32.281,32.281,0,0,0,251.244,142c.035.052.069.088.1.14l.157.1a32.227,32.227,0,0,0,47.607-2.773l.157-.157c.036-.052.052-.088.088-.14a32.273,32.273,0,0,0-25.323-52.318Zm0,61.287A28.891,28.891,0,0,1,254.89,140.9l12.077-12.251a11.8,11.8,0,0,0,15.2-.89l13.455,10.733a28.97,28.97,0,0,1-21.587,9.649Zm23.646-12.215-13.455-10.75a11.6,11.6,0,0,0,1.658-6.021,11.849,11.849,0,1,0-23.7,0,11.707,11.707,0,0,0,2.443,7.172l-12.094,12.251a28.994,28.994,0,1,1,45.145-2.653Z" transform="translate(-112.243 -21.313)" fill="#156984"></path><path id="Path_437" data-name="Path 437" d="M246.549,63.5A8.442,8.442,0,0,0,241.8,78.927L221.943,125.7a8.1,8.1,0,0,0-1.727-.192,8.409,8.409,0,0,0-5.445,1.989l-6-4.8a41.938,41.938,0,1,0-64.358,3.805l-7.12,7.208a8.352,8.352,0,0,0-4.66-1.4,8.952,8.952,0,0,0-2.164.279l-19-38.7a8.438,8.438,0,1,0-5.114,1.745,9,9,0,0,0,2.164-.279l19,38.707a8.444,8.444,0,1,0,13.577,6.7,8.293,8.293,0,0,0-1.466-4.729l7.12-7.227a41.952,41.952,0,0,0,13.471,8.29v10.453a1.642,1.642,0,0,0,1.641,1.658h5.794v39A7.385,7.385,0,0,0,175,195.569a7.367,7.367,0,0,0,7.365-7.365v-39h5.794a1.642,1.642,0,0,0,1.641-1.658V137.076a42.121,42.121,0,0,0,16.908-11.8l6,4.8a8.448,8.448,0,1,0,12.252-3.105l19.876-46.75a9.277,9.277,0,0,0,1.708.174,8.446,8.446,0,1,0,0-16.892ZM106.347,92.33a5.148,5.148,0,1,1,5.148-5.148A5.16,5.16,0,0,1,106.347,92.33ZM175,136.48a38.644,38.644,0,1,1,38.654-38.635A38.675,38.675,0,0,1,175,136.48Z" transform="translate(-13.21)" fill="#156984"></path></g></svg>