<svg xmlns="http://www.w3.org/2000/svg" width="141.446" height="139.676" viewBox="0 0 141.446 139.676"><g id="noun-connection-1597758" transform="translate(-84.423 -48.67)"><path id="Path_415" data-name="Path 415" d="M192.377,367.357h-5.539a11.139,11.139,0,1,0-10.141,0h-5.544a4.476,4.476,0,0,0-4.478,4.474L165.1,378.32a4.477,4.477,0,0,0,4.478,4.478h24.382a4.48,4.48,0,0,0,4.481-4.478l-1.583-6.489a4.476,4.476,0,0,0-4.478-4.473Z" transform="translate(-65.773 -207.781)" fill="#156984"></path><path id="Path_416" data-name="Path 416" d="M451.743,367.357H446.2a11.139,11.139,0,1,0-10.141,0h-5.544a4.473,4.473,0,0,0-4.474,4.474l-1.579,6.488a4.476,4.476,0,0,0,4.474,4.478h24.38a4.48,4.48,0,0,0,4.481-4.478l-1.583-6.488a4.472,4.472,0,0,0-4.474-4.474Z" transform="translate(-246.837 -207.781)" fill="#156984"></path><path id="Path_417" data-name="Path 417" d="M198.439,124.841l-1.583-6.488a4.476,4.476,0,0,0-4.478-4.474h-5.537a11.139,11.139,0,1,0-10.141,0h-5.544a4.476,4.476,0,0,0-4.478,4.474l-1.579,6.488a4.477,4.477,0,0,0,4.478,4.478H193.96a4.48,4.48,0,0,0,4.479-4.478Z" transform="translate(-65.775 -30.828)" fill="#156984"></path><path id="Path_418" data-name="Path 418" d="M229.174,125.413V111.607A31.568,31.568,0,1,0,194.393,75.8h-15.86a31.554,31.554,0,1,0-34.782,35.81v13.8a31.568,31.568,0,1,0,34.782,35.812h15.86a31.554,31.554,0,1,0,34.781-35.809ZM197.99,75.8a25.854,25.854,0,1,1-.386,4.448,28.034,28.034,0,0,1,.386-4.448ZM119.3,80.247a27.994,27.994,0,1,1,28.012,28.016A28.045,28.045,0,0,1,119.3,80.247Zm55.637,80.973a25.622,25.622,0,1,1,.389-4.448A28.032,28.032,0,0,1,174.937,161.22Zm3.6-8.9a31.626,31.626,0,0,0-25.884-26.656V111.35a31.624,31.624,0,0,0,25.884-26.656H194.4a31.62,31.62,0,0,0,25.881,26.656v14.317A31.616,31.616,0,0,0,194.4,152.322Zm47.076,32.464a28.016,28.016,0,1,1,28.016-28.014A28.033,28.033,0,0,1,225.611,184.786Z" transform="translate(-31.317)" fill="#156984"></path><path id="Path_419" data-name="Path 419" d="M428.936,129.324h24.38a4.48,4.48,0,0,0,4.481-4.478l-1.583-6.488a4.476,4.476,0,0,0-4.478-4.474H446.2a11.139,11.139,0,1,0-10.141,0h-5.544a4.473,4.473,0,0,0-4.474,4.474l-1.579,6.488a4.485,4.485,0,0,0,4.478,4.478Z" transform="translate(-246.833 -30.831)" fill="#156984"></path></g></svg>