<svg xmlns="http://www.w3.org/2000/svg" width="145.931" height="139.676" viewBox="0 0 145.931 139.676"><g id="noun-meeting-1949946" transform="translate(-72.451 -16.237)"><path id="Path_420" data-name="Path 420" d="M284.089,137.087l-1.936-.447-1.191,1.638a15.1,15.1,0,0,1-12.508,6.7,15.3,15.3,0,0,1-12.508-6.7l-1.191-1.638-1.936.447c-7.892,1.638-13.7,8.339-13.7,16.082v10.125H297.49V153.169c.3-7.595-5.508-14.444-13.4-16.082Z" transform="translate(-123.186 -88.387)" fill="#156984"></path><path id="Path_421" data-name="Path 421" d="M306.012,51.529c8.785,0,15.934-8.637,15.934-19.358,0-9.828-6.105-15.934-15.934-15.934s-15.934,6.105-15.934,15.784c0,10.722,7.148,19.508,15.934,19.508Zm0-29.335c4.468,0,9.977,1.638,9.977,9.828,0,7.445-4.468,13.4-9.977,13.4s-9.977-5.956-9.977-13.4C296.035,23.981,301.544,22.194,306.012,22.194Z" transform="translate(-160.595)" fill="#156984"></path><path id="Path_422" data-name="Path 422" d="M120.27,441.727l-1.936-.447-1.043,1.638a15.1,15.1,0,0,1-12.508,6.7,15.3,15.3,0,0,1-12.508-6.7l-1.191-1.638-1.936.447C81.4,443.365,75.6,450.066,75.6,457.809v10.125h58.372V457.809c0-7.743-5.658-14.444-13.7-16.082Z" transform="translate(-3.145 -312.021)" fill="#156984"></path><path id="Path_423" data-name="Path 423" d="M141.785,356.022c8.785,0,15.934-8.637,15.934-19.358,0-9.828-6.105-15.784-15.934-15.784S126,326.986,126,336.664C126,347.385,133,356.022,141.785,356.022Zm0-29.186c4.467,0,9.977,1.638,9.977,9.828,0,7.445-4.468,13.4-9.977,13.4s-9.977-5.956-9.977-13.4C131.957,328.474,137.317,326.836,141.785,326.836Z" transform="translate(-40.147 -223.636)" fill="#156984"></path><path id="Path_424" data-name="Path 424" d="M449.552,441.727l-1.936-.447-1.191,1.638a15.1,15.1,0,0,1-12.508,6.7,15.3,15.3,0,0,1-12.508-6.7l-1.191-1.638-1.638.447c-7.892,1.638-13.7,8.339-13.7,16.082v10.125h58.372V457.809c0-7.743-5.807-14.444-13.7-16.082Z" transform="translate(-244.87 -312.021)" fill="#156984"></path><path id="Path_425" data-name="Path 425" d="M454.72,336.665c0,10.721,7.147,19.358,15.934,19.358s15.934-8.637,15.934-19.358c0-9.828-6.105-15.784-15.934-15.784S454.72,326.986,454.72,336.665Zm25.762,0c0,7.445-4.468,13.4-9.977,13.4s-9.977-5.956-9.977-13.4c0-8.19,5.361-9.828,9.977-9.828S480.482,328.476,480.482,336.665Z" transform="translate(-281.457 -223.637)" fill="#156984"></path><path id="Path_426" data-name="Path 426" d="M455.466,119.632a45.816,45.816,0,0,1-1.49,11.913l5.807,1.49a50.83,50.83,0,0,0,1.638-13.4A53.2,53.2,0,0,0,431.64,71.685l-2.68,5.361a47.165,47.165,0,0,1,26.506,42.588Z" transform="translate(-262.547 -40.704)" fill="#156984"></path><path id="Path_427" data-name="Path 427" d="M299.76,401.967a47.282,47.282,0,0,1-22.931,5.807A46.775,46.775,0,0,1,253.3,401.52l-2.978,5.212a52.892,52.892,0,0,0,26.357,7,53.844,53.844,0,0,0,25.761-6.552Z" transform="translate(-131.411 -282.834)" fill="#156984"></path><path id="Path_428" data-name="Path 428" d="M156.406,131.54a45.809,45.809,0,0,1-1.49-11.913A47.293,47.293,0,0,1,181.274,77.04l-2.68-5.361a53.494,53.494,0,0,0-29.633,47.948,56.909,56.909,0,0,0,1.638,13.4Z" transform="translate(-57.002 -40.7)" fill="#156984"></path></g></svg>