<svg xmlns="http://www.w3.org/2000/svg" width="138.968" height="139.676" viewBox="0 0 138.968 139.676"><g id="noun-resources-4347499_1_" data-name="noun-resources-4347499 (1)" transform="translate(-81.528 -34.974)"><path id="Subtraction_1" data-name="Subtraction 1" d="M169.556-2483.145a24.812,24.812,0,0,1-9.544-1.9,24.827,24.827,0,0,1-8.092-5.407,24.813,24.813,0,0,1-5.406-8.091,24.82,24.82,0,0,1-1.9-9.544,24.82,24.82,0,0,1,1.9-9.544,24.823,24.823,0,0,1,5.406-8.091,24.822,24.822,0,0,1,8.092-5.406,24.818,24.818,0,0,1,9.544-1.9,24.82,24.82,0,0,1,9.544,1.9,24.814,24.814,0,0,1,8.091,5.406,24.829,24.829,0,0,1,5.407,8.091,24.815,24.815,0,0,1,1.9,9.544,24.815,24.815,0,0,1-1.9,9.544,24.818,24.818,0,0,1-5.407,8.091,24.82,24.82,0,0,1-8.091,5.407A24.814,24.814,0,0,1,169.556-2483.145Zm-3.433-21.737,6.8,12.711,2.658-1.422-6.181-11.548a9.8,9.8,0,0,0,4.679-2.5,8.227,8.227,0,0,0,2.413-4.4h4.672v-2.828h-4.672a8.213,8.213,0,0,0-2.337-4.332h7.009v-2.827H159.615v2.827h7.46a6.615,6.615,0,0,1,6.518,4.332H159.615v2.827h13.978a6.615,6.615,0,0,1-6.518,4.332h-7.46v2.827Z" transform="translate(26 2613)" fill="#156984"></path><path id="Path_401" data-name="Path 401" d="M310.941,360.215l-22.447-9.976a2.489,2.489,0,0,0-2.044,0L264,360.215a2.493,2.493,0,0,0,0,4.538l22.447,9.976a2.488,2.488,0,0,0,2.044,0l22.447-9.976a2.493,2.493,0,0,0,0-4.538Z" transform="translate(-136.109 -225.247)" fill="#156984"></path><path id="Path_402" data-name="Path 402" d="M129.941,192.5a24.941,24.941,0,1,0,17.635,7.305A24.939,24.939,0,0,0,129.941,192.5Zm11.747,36.687a2.492,2.492,0,0,1-3.541,0l-4.988-4.988a7.474,7.474,0,1,1-5.712-13.792V204.97a2.494,2.494,0,0,1,4.988,0v5.437a7.413,7.413,0,0,1,4.24,10.251l4.988,4.988a2.492,2.492,0,0,1,.024,3.541Z" transform="translate(-23.472 -112.626)" fill="#156984"></path><path id="Path_403" data-name="Path 403" d="M188.738,273.744a2.494,2.494,0,1,1-2.494-2.494,2.494,2.494,0,0,1,2.494,2.494" transform="translate(-79.775 -168.929)" fill="#156984"></path><path id="Path_404" data-name="Path 404" d="M328.738,107.494A2.494,2.494,0,1,1,326.244,105a2.494,2.494,0,0,1,2.494,2.494" transform="translate(-179.87 -50.066)" fill="#156984"></path><path id="Path_405" data-name="Path 405" d="M363.738,107.494A2.494,2.494,0,1,1,361.244,105a2.494,2.494,0,0,1,2.494,2.494" transform="translate(-204.894 -50.066)" fill="#156984"></path><path id="Path_406" data-name="Path 406" d="M284.947,428.506l-.549-.175-21.9-9.726v17.857a2.493,2.493,0,0,0,1.472,2.269l20.975,10.2Z" transform="translate(-136.079 -274.283)" fill="#156984"></path><path id="Path_407" data-name="Path 407" d="M359.3,428.332l-.549.175v20.426l20.975-10.2a2.493,2.493,0,0,0,1.472-2.269V418.605Z" transform="translate(-204.897 -274.283)" fill="#156984"></path><path id="Path_408" data-name="Path 408" d="M281.226,76.083v1.3H291.2V64.462a7.48,7.48,0,1,1,2.494-12.57,7.487,7.487,0,1,1,2.494,12.57V77.381h9.976v-1.3a22.446,22.446,0,1,0-24.941,0Z" transform="translate(-142.335)" fill="#156984"></path><path id="Path_409" data-name="Path 409" d="M306.25,201.25a7.483,7.483,0,0,0,4.988,7.033v.449a4.988,4.988,0,0,0,4.988,4.988h4.988a4.987,4.987,0,0,0,4.988-4.988v-.449a7.483,7.483,0,0,0,4.988-7.033Z" transform="translate(-167.358 -118.882)" fill="#156984"></path><path id="Path_410" data-name="Path 410" d="M212.217,129.873v-.549a53.215,53.215,0,0,0-13.069,13.019,31.208,31.208,0,0,1,5.563.873,49.233,49.233,0,0,1,8.005-8.106,31.3,31.3,0,0,1-.5-5.238Z" transform="translate(-90.784 -67.457)" fill="#156984"></path><path id="Path_411" data-name="Path 411" d="M453.749,129.32v.549a31.321,31.321,0,0,1-.5,5.338,49.16,49.16,0,0,1,7.981,8.106,31.17,31.17,0,0,1,5.587-.973,53.22,53.22,0,0,0-13.069-13.019Z" transform="translate(-272.458 -67.454)" fill="#156984"></path><path id="Path_412" data-name="Path 412" d="M213.251,390.041a47.7,47.7,0,0,1-8.455-8.455,31.11,31.11,0,0,1-5.562.873,52.381,52.381,0,0,0,13.044,13.169,31.774,31.774,0,0,1,.973-5.587Z" transform="translate(-90.846 -247.815)" fill="#156984"></path><path id="Path_413" data-name="Path 413" d="M460.041,381.59a47.7,47.7,0,0,1-8.455,8.455,31.771,31.771,0,0,1,.973,5.587,52.4,52.4,0,0,0,13.069-13.069,31.17,31.17,0,0,1-5.587-.973Z" transform="translate(-271.268 -247.818)" fill="#156984"></path></g></svg>