<?xml version="1.0" encoding="UTF-8"?> <svg xmlns="http://www.w3.org/2000/svg" width="110" height="112" viewBox="0 0 110 112"><g id="Group_44195" data-name="Group 44195" transform="translate(-107 -5339.239)"><g id="Group_36023" data-name="Group 36023" transform="translate(17 1117.239)"><rect id="Rectangle_6739" data-name="Rectangle 6739" width="110" height="112" rx="23" transform="translate(90 4222)" fill="#f7f7f7" opacity="0.682"></rect></g><g id="noun-business-partners-2390102" transform="translate(40.72 5220.333)"><path id="Path_69670" data-name="Path 69670" d="M525.538,183.93H513.428a2.1,2.1,0,0,0-2.1,2.1v23.14a2.1,2.1,0,0,0,2.1,2.1h12.109a2.1,2.1,0,0,0,2.1-2.1v-23.14A2.1,2.1,0,0,0,525.538,183.93Z" transform="translate(-366.371 -20.397)"></path><path id="Path_69671" data-name="Path 69671" d="M94.391,183.93H82.282a2.1,2.1,0,0,0-2.1,2.1v23.14a2.1,2.1,0,0,0,2.1,2.1h12.11a2.1,2.1,0,0,0,2.1-2.1v-23.14A2.1,2.1,0,0,0,94.391,183.93Z" transform="translate(0 -20.397)"></path><path id="Path_69672" data-name="Path 69672" d="M223.471,160.957l-12.3,7.707H211.1l.05.017c-4.19,1.952,1.026,4.981,1.026,4.981,7.387,3.534,16.137-2.961,16.137-2.961a3.163,3.163,0,0,1,2.961-.64l17.937,16.154a3.674,3.674,0,0,1,.421.471l.134.016c.084-1.178,1.329-1.548,2.575-1.582v-19.2c-3.853-.791-10.988-2.356-13.074-3.735,0,0-10.836-4.122-15.8-1.228Z" transform="translate(-109.906)"></path><path id="Path_69673" data-name="Path 69673" d="M226.739,243.5c-.168.067-13.3,9.494-21.269,1.868V257a7.188,7.188,0,0,1,2.49,1.228s12.048,7.589,14.925,8.363c0,0,4.611,1.851,4.527-2.053,0,0,5.923,3.45,6.613-1.582,0,0,6.562,4.24,6.7-1.952a9.081,9.081,0,0,0,3.18.925,2.515,2.515,0,0,0,2.541-1.616l-2.322-1.144Z" transform="translate(-106.461 -71.017)"></path></g></g></svg> 