<?xml version="1.0" encoding="UTF-8"?> <svg xmlns="http://www.w3.org/2000/svg" width="110" height="112" viewBox="0 0 110 112"><g id="Group_36023" data-name="Group 36023" transform="translate(-90 -4222)"><rect id="Rectangle_6739" data-name="Rectangle 6739" width="110" height="112" rx="23" transform="translate(90 4222)" fill="#f7f7f7" opacity="0.682"></rect><g id="noun-fund-4291035" transform="translate(-0.756 4186.607)"><path id="Path_69625" data-name="Path 69625" d="M137.724,74.587a1.841,1.841,0,0,0-1.338-2.23L122.117,68.79a1.455,1.455,0,0,1,.706-2.824l5.813,1.454,10.759-4.3h0a1.46,1.46,0,0,1,.908-.057l29.946,7.812h0a2.68,2.68,0,0,0,1.637-5.094L138.374,52.888l-24.3,5.719a1.438,1.438,0,0,1-.333.039l-8.733,0V74.66l5.822,0c.025,0,25.027,1.322,25.027,1.322a1.839,1.839,0,0,0,1.871-1.391Z"></path><path id="Path_69626" data-name="Path 69626" d="M341.25,384.93v2.911h7.17a4.734,4.734,0,0,1-.617-2.911Z" transform="translate(-196.949 -276.811)"></path><path id="Path_69627" data-name="Path 69627" d="M437.5,271.172a8.721,8.721,0,0,0,5.075,7.932l6.457.342a8.732,8.732,0,1,0-11.532-8.274Zm5.822-1.456a2.91,2.91,0,0,1,1.455-2.517v-.394a2.3,2.3,0,1,1,2.911,2.911h-1.455a2.908,2.908,0,0,1,1.455,5.428v.394a2.3,2.3,0,1,1-2.911-2.911h1.455a2.914,2.914,0,0,1-2.911-2.911Z" transform="translate(-277.188 -174.697)"></path><path id="Path_69628" data-name="Path 69628" d="M358.75,209.93h17.466v2.911H358.75Z" transform="translate(-211.538 -130.92)"></path><path id="Path_69629" data-name="Path 69629" d="M370.507,279.93H358.752v2.911h10.557a11.583,11.583,0,0,1,1.2-2.911Z" transform="translate(-211.54 -189.276)"></path><path id="Path_69630" data-name="Path 69630" d="M367.347,351.536l4.461.237a11.638,11.638,0,0,1-1.315-1.84H358.749v2.911h5.093a4.757,4.757,0,0,1,3.505-1.308Z" transform="translate(-211.537 -247.635)"></path><path id="Path_69631" data-name="Path 69631" d="M376.25,317.841H383.9a11.664,11.664,0,0,1-.368-2.911H376.25Z" transform="translate(-226.127 -218.454)"></path><path id="Path_69632" data-name="Path 69632" d="M236.25,209.93h17.466v2.911H236.25Z" transform="translate(-109.415 -130.92)"></path><path id="Path_69633" data-name="Path 69633" d="M271.216,247.841V244.93H253.75v2.911Z" transform="translate(-124.004 -160.098)"></path><path id="Path_69634" data-name="Path 69634" d="M376.25,177.841h17.466V174.93H376.25Z" transform="translate(-226.127 -101.742)"></path><path id="Path_69635" data-name="Path 69635" d="M253.75,314.93h17.466v2.911H253.75Z" transform="translate(-124.004 -218.454)"></path><path id="Path_69636" data-name="Path 69636" d="M253.716,282.841V279.93H236.25v2.911Z" transform="translate(-109.415 -189.276)"></path><path id="Path_69637" data-name="Path 69637" d="M393.716,245.025v-.094H376.25v2.911h11.232a11.6,11.6,0,0,1,6.234-2.816Z" transform="translate(-226.127 -160.098)"></path><path id="Path_69638" data-name="Path 69638" d="M245.289,378.362l-24.951-1.32a1.839,1.839,0,0,0-.534,3.62l14.27,3.567h0a1.455,1.455,0,1,1-.706,2.824l-5.813-1.454L216.8,389.9h0a1.455,1.455,0,0,1-.908.057l-29.946-7.813a2.68,2.68,0,0,0-1.639,5.094l33.512,12.889,24.306-5.719h0a1.436,1.436,0,0,1,.333-.038l8.733,0v-16.01s-5.873,0-5.9,0Z" transform="translate(-64.678 -270.233)"></path><path id="Path_69639" data-name="Path 69639" d="M253.716,352.841V349.93H236.25v2.911Z" transform="translate(-109.415 -247.632)"></path><path id="Path_69640" data-name="Path 69640" d="M236.216,387.841V384.93H218.75v1.481l5.483,1.43Z" transform="translate(-94.826 -276.811)"></path></g></g></svg> 